HIERARCHY
ROOT Hips
{
	OFFSET	0.00	0.00	0.00
	CHANNELS 6 Xposition Yposition Zposition Zrotation Xrotation Yrotation
	JOINT Spine
	{
		OFFSET	 0.00	0.01	 0.00
		CHANNELS 3 Zrotation Xrotation Yrotation
		JOINT Spine1
		{
			OFFSET	 0.00	 2.45913012437421	 0.00
			CHANNELS 3 Zrotation Xrotation Yrotation
            JOINT Neck
            {
                OFFSET	 0.00	 2.48462964506057	 0.00
                CHANNELS 3 Zrotation Xrotation Yrotation
                JOINT Head
                {
                    OFFSET	 0.00	 0.927524780924562	 0.00
                    CHANNELS 3 Zrotation Xrotation Yrotation
                    End Site 
                    {
                        OFFSET	 0.00	 1.14999962169752	 0.00
                    }
                }
            }
			JOINT LeftShoulder
			{
				OFFSET	 0.00	 2.48462964506057	 0.00
				CHANNELS 3 Zrotation Xrotation Yrotation
				JOINT LeftUpArm
				{
					OFFSET	 0.00	 1.24881979654096	 0.00
					CHANNELS 3 Zrotation Xrotation Yrotation
					JOINT LeftForeArm
					{
						OFFSET	 0.00	2.59758046908119	 0.00
						CHANNELS 3 Zrotation Xrotation Yrotation
						JOINT LeftHand
						{
							OFFSET	 0.00	2.45542024364365	 0.00
							CHANNELS 3 Zrotation Xrotation Yrotation
							JOINT LeftHandThumb 
							{
								OFFSET	 0.00	0.00	 0.00
								CHANNELS 3 Zrotation Xrotation Yrotation
								End Site
								{
									OFFSET	 0.00	0.00	1.00000003353624
								}
							}
							JOINT L_Wrist_End 
							{
								OFFSET	 0.00	0.99999967115358	 0.00
								CHANNELS 3 Zrotation Xrotation Yrotation
								End Site 
								{
									OFFSET	 0.00	 0.00	 0.00
								}
							}
						}
					}
				}
			}
			JOINT RightShoulder
			{
				OFFSET	 0.00	 2.48462964506057	 0.00
				CHANNELS 3 Zrotation Xrotation Yrotation
				JOINT RightUpArm
				{
					OFFSET	 0.00	 1.24881979654096	 0.00
					CHANNELS 3 Zrotation Xrotation Yrotation
					JOINT RightForeArm
					{
						OFFSET	 0.00	2.59758046908119	 0.00
						CHANNELS 3 Zrotation Xrotation Yrotation
						JOINT RightHand
						{
							OFFSET	 0.00	2.45542024364365	 0.00
							CHANNELS 3 Zrotation Xrotation Yrotation
							JOINT RightHandThumb 
							{
								OFFSET	 0.00	0.00	 0.00
								CHANNELS 3 Zrotation Xrotation Yrotation
								End Site
								{
									OFFSET	 0.00	0.00	1.00000003353624
								}
							}
							JOINT R_Wrist_End 
							{
								OFFSET	 0.00	0.99999967115358	 0.00
								CHANNELS 3 Zrotation Xrotation Yrotation
								End Site 
								{
									OFFSET	 0.00	 0.00	 0.00
								}
							}
						}
					}
				}
			}
		}
	}
	JOINT LeftUpLeg
	{
		OFFSET	 1.2719394002717	 0.00	 0.00
		CHANNELS 3 Zrotation Xrotation Yrotation
		JOINT LeftLowLeg
		{
			OFFSET	 0.00	-4.3429100912261	 0.00
			CHANNELS 3 Zrotation Xrotation Yrotation
			JOINT LeftFoot
			{
				OFFSET	 0.00	-4.48767017425826	 0.00
				CHANNELS 3 Zrotation Xrotation Yrotation
				JOINT LeftToeBase
                {
                    OFFSET	 0.00	0.00	 1.51507020887566
                    CHANNELS 3 Zrotation Xrotation Yrotation
                    End Site 
                    {
                        OFFSET	 0.00	0.00	 0.75000010571191
                    }
                }
			}
		}
	}
	JOINT RightUpLeg
	{
		OFFSET	 -1.2719393604653	 0.00	 0.00
		CHANNELS 3 Zrotation Xrotation Yrotation
		JOINT RightLowLeg
		{
			OFFSET	 0.00	-4.3429100912261	 0.00
			CHANNELS 3 Zrotation Xrotation Yrotation
			JOINT RightFoot
			{
				OFFSET	 0.00	-4.48767017425826	 0.00
				CHANNELS 3 Zrotation Xrotation Yrotation
				JOINT RightToeBase
                {
                    OFFSET	 0.00	0.00	 1.51507020887566
                    CHANNELS 3 Zrotation Xrotation Yrotation
                    End Site 
                    {
                        OFFSET	 0.00	0.00	 0.749999965609858
                    }
                }   
			}
		}
	}
}
MOTION 
Frames:	13 
Frame Time: 0.02 
  7.161160278320312 0.5877479934692382 9.276339721679687 -156.104 81.7395 -227.039 5.71216 -16.6539 4.78315 -3.72305 16.083 -0.690401 32.7703 28.3408 -21.874 -32.8357 -77.7887 1416.09 -114.2526 1.4696 7.40791 -56.8716 23.9542 -27.636 0.0 141.001 0.0 94.7732 -52.5439 23.3622 0.0 0.0 0.0 0.0 0.0 0.0 110.8756 -6.58204 -0.543196 22.9666 -7.08586 -439.335 0.0 81.5632 0.0 -102.046 50.6295 30.4816 0.0 0.0 0.0 0.0 0.0 0.0 0.518353 1.89347 -14.7908 0.0 16.3149 0.0 2.7774 -13.959101 14.9611 0.0 -10.93719 0.0 9.71136 -21.5767 370.765 0.0 9.26061 0.0 7.85779 4.2409 -18.8656 0.0 -23.7266 0.0 
  7.07030029296875 0.4659550094604492 9.25031005859375 -155.654 81.564 -227.192 5.82267 -17.1582 4.62812 -3.41307 15.7315 -0.85606 33.0493 28.3852 -22.4734 -34.1618 -77.3687 1415.02 -114.1719 1.21072 7.36187 -56.8684 23.8169 -27.7753 0.0 140.969 0.0 94.8665 -54.164 23.5858 0.0 0.0 0.0 0.0 0.0 0.0 110.8495 -6.66272 -0.612956 22.7245 -7.006 -439.433 0.0 81.8242 0.0 -101.73 50.7414 30.7661 0.0 0.0 0.0 0.0 0.0 0.0 0.880327 2.73412 -15.2318 0.0 16.3664 0.0 2.99382 -14.606899 15.3208 0.0 -11.01923 0.0 10.1514 -20.9882 370.832 0.0 9.57196 0.0 7.50449 4.6607 -19.0747 0.0 -23.286331 0.0 
  6.974509887695312 0.34478900909423826 9.228519897460938 -154.196 81.2183 -228.53 6.17108 -17.7102 4.6419 -3.04896 15.4076 -0.979621 33.312 28.5483 -23.0368 -35.9342 -77.0201 1413.45 -114.299805 1.12407 7.41284 -56.5835 23.7319 -27.9912 0.0 140.988 0.0 94.67 -54.7046 23.7116 0.0 0.0 0.0 0.0 0.0 0.0 110.9561 -6.69786 -0.557376 22.4213 -7.01126 -439.384 0.0 82.0011 0.0 -101.605 50.774 30.8668 0.0 0.0 0.0 0.0 0.0 0.0 1.47678 3.59923 -15.6195 0.0 16.4593 0.0 3.23925 -15.209 15.8234 0.0 -11.14517 0.0 10.8634 -20.2476 372.085 0.0 9.05209 0.0 10.1378 6.53971 -19.6287 0.0 -21.83675 0.0 
  6.873150024414063 0.22733200073242188 9.215369873046875 -152.389 80.6391 -230.474 6.62391 -18.3803 4.70532 -2.45004 15.2655 -1.03293 33.3147 28.5823 -23.3539 -36.7349 -76.6466 1412.79 -114.6912 1.09592 7.43041 -56.1866 23.7693 -28.3544 0.0 141.1 0.0 94.3065 -54.4686 23.7689 0.0 0.0 0.0 0.0 0.0 0.0 111.1912 -6.71266 -0.576563 22.0268 -6.78977 -439.095 0.0 82.1179 0.0 -102.644 50.9604 31.7942 0.0 0.0 0.0 0.0 0.0 0.0 2.29143 4.43201 -15.947 0.0 16.5284 0.0 3.46543 -15.6303005 16.5413 0.0 -11.3291 0.0 11.9243 -19.8552 374.25 0.0 9.21088 0.0 10.8493 9.87281 -20.5103 0.0 -22.85057 0.0 
  6.769240112304687 0.11221699714660645 9.206820068359375 -151.525 79.9654 -231.725 7.01295 -19.169 4.73607 -1.74431 15.1019 -1.03323 33.0979 28.6607 -23.4839 -36.9529 -76.1276 1412.75 -114.8969 1.09336 7.47895 -56.1534 23.7741 -28.6512 0.0 141.28 0.0 93.954 -53.406 22.9537 0.0 0.0 0.0 0.0 0.0 0.0 111.3248 -6.69257 -0.646228 21.6662 -6.28684 -438.996 0.0 82.3864 0.0 -104.36 51.1422 32.7531 0.0 0.0 0.0 0.0 0.0 0.0 3.12074 5.0906 -15.7321 0.0 16.6801 0.0 3.5056 -15.875601 16.8735 0.0 -11.69535 0.0 13.1483 -19.9919 376.796 0.0 10.4448 0.0 12.0247 11.15374 -21.3607 0.0 -21.34282 0.0 
  6.662780151367188 -0.004092060029506683 9.200139770507812 -151.671 79.3919 -231.978 7.14839 -20.0214 4.52627 -0.988277 14.8667 -1.09408 32.6811 29.0295 -23.2883 -37.1765 -75.6519 1412.77 -114.8698 1.01324 7.48634 -56.3997 23.7303 -28.8036 0.0 141.54 0.0 94.4784 -51.6155 22.4379 0.0 0.0 0.0 0.0 0.0 0.0 111.2418 -6.60159 -0.697994 21.3366 -5.67493 -439.31 0.0 82.9316 0.0 -105.832 51.0928 33.1142 0.0 0.0 0.0 0.0 0.0 0.0 3.77531 5.64846 -15.5222 0.0 16.9411 0.0 3.16228 -15.977501 16.9124 0.0 -12.14259 0.0 14.3728 -20.3293 378.656 0.0 12.216 0.0 12.7519 10.56816 -22.1336 0.0 -20.39064 0.0 
  6.556539916992188 -0.11854599952697754 9.197979736328126 -151.821 78.9904 -232.2 7.16913 -20.7056 4.20313 -0.315757 14.5808 -1.24535 32.4221 29.4427 -23.1497 -37.5778 -75.2806 1412.7 -114.7664 0.887771 7.45397 -56.5951 23.7488 -28.883 0.0 141.802 0.0 95.7794 -49.2956 23.2538 0.0 0.0 0.0 0.0 0.0 0.0 111.0945 -6.52951 -0.766897 20.9319 -4.92208 -439.928 0.0 83.5812 0.0 -106.869 50.8535 32.9948 0.0 0.0 0.0 0.0 0.0 0.0 4.25114 6.13564 -15.4551 0.0 17.5179 0.0 2.64114 -15.8449 16.8857 0.0 -12.88315 0.0 15.4869 -20.4836 379.915 0.0 14.0667 0.0 11.9466 9.57469 -22.2362 0.0 -19.92166 0.0 
  6.451589965820313 -0.22891599655151368 9.20197021484375 -151.136 78.8119 -233.168 7.09137 -21.0991 3.76786 0.291406 14.3184 -1.50776 31.9668 29.9809 -22.7018 -37.3591 -74.9102 1413.06 -114.6593 0.785908 7.4616 -56.647 23.9603 -29.0569 0.0 141.997 0.0 96.6416 -47.0319 23.0672 0.0 0.0 0.0 0.0 0.0 0.0 110.9216 -6.39379 -0.848106 20.4605 -4.18717 -440.637 0.0 84.1256 0.0 -107.329 50.6618 32.7985 0.0 0.0 0.0 0.0 0.0 0.0 4.62992 6.58971 -15.381 0.0 18.5833 0.0 1.76901 -15.5172 16.4661 0.0 -14.139691 0.0 16.4935 -20.1118 381.213 0.0 15.3683 0.0 11.1319 8.76293 -23.0941 0.0 -20.19875 0.0 
  6.348579711914063 -0.33738998413085936 9.21176025390625 -149.788 78.7838 -234.602 7.02516 -21.3129 3.28429 0.693798 14.0827 -1.92212 31.6686 30.5269 -22.3488 -36.9911 -74.5191 1413.63 -114.480804 0.705637 7.48623 -56.6034 24.2472 -29.1185 0.0 142.014 0.0 96.5875 -44.6437 21.3886 0.0 0.0 0.0 0.0 0.0 0.0 110.754196 -6.29583 -0.899875 20.0215 -3.51028 -441.369 0.0 84.5191 0.0 -106.754 50.4737 31.9888 0.0 0.0 0.0 0.0 0.0 0.0 4.94791 6.89418 -15.3362 0.0 20.1832 0.0 0.723506 -14.8986 15.6939 0.0 -15.709338 0.0 17.1987 -19.1219 382.171 0.0 15.7327 0.0 10.3601 8.145411 -24.0552 0.0 -20.10401 0.0 
  6.249180297851563 -0.44034198760986326 9.224829711914062 -148.039 78.8621 -236.171 6.9552 -21.3079 2.80162 0.884975 13.7681 -2.41463 31.543 31.0549 -22.1123 -36.7934 -74.2108 1414.09 -114.3425 0.72064 7.54231 -56.4406 24.592 -29.3819 0.0 142.048 0.0 95.771 -43.3972 19.7278 0.0 0.0 0.0 0.0 0.0 0.0 110.5642 -6.3296 -0.840132 19.8059 -2.96891 -441.996 0.0 84.7337 0.0 -105.695 50.2756 31.261 0.0 0.0 0.0 0.0 0.0 0.0 5.23265 6.90059 -15.2754 0.0 22.3243 0.0 -0.848883 -14.3361 14.3589 0.0 -17.17598 0.0 17.5494 -17.8491 382.13 0.0 15.5502 0.0 9.39899 7.8438 -24.5176 0.0 -20.1917 0.0 
  6.156589965820313 -0.5375659942626954 9.237789916992188 -146.866 78.8668 -236.832 6.94994 -21.263 2.3046 0.851903 13.171 -3.03858 31.5316 31.7412 -21.9295 -36.8622 -73.9203 1414.16 -114.107 0.709037 7.45067 -56.3848 24.848 -29.1969 0.0 141.955 0.0 95.3275 -42.31 19.753 0.0 0.0 0.0 0.0 0.0 0.0 110.4042 -6.40136 -0.902 19.7691 -2.67306 -442.146 0.0 84.8633 0.0 -104.396 50.3888 30.6052 0.0 0.0 0.0 0.0 0.0 0.0 5.49526 6.26667 -15.3037 0.0 25.14 0.0 -2.39479 -13.543501 12.7338 0.0 -19.00498 0.0 17.6011 -16.7374 381.067 0.0 15.1469 0.0 8.75441 7.42592 -24.0895 0.0 -19.98479 0.0 
  6.069730224609375 -0.626515007019043 9.247039794921875 -146.217 78.8677 -236.972 6.99371 -21.1422 1.95838 0.707644 12.4748 -3.55152 31.5526 32.2146 -21.9345 -36.7317 -73.4767 1414.41 -113.9151 0.781823 7.51698 -56.3138 25.3926 -29.072 0.0 142.006 0.0 94.7577 -42.6144 19.9313 0.0 0.0 0.0 0.0 0.0 0.0 110.1743 -6.61078 -0.803738 19.9828 -2.61502 -441.984 0.0 84.9743 0.0 -103.025 50.8192 30.172 0.0 0.0 0.0 0.0 0.0 0.0 5.73827 5.10141 -14.8106 0.0 28.5968 0.0 -3.23158 -12.249399 10.9809 0.0 -21.49875 0.0 17.5502 -15.8931 379.427 0.0 14.889 0.0 8.37132 6.9132996 -23.0162 0.0 -19.83127 0.0 
  5.987080078125 -0.7089600372314453 9.2525 -146.308 78.7365 -236.488 7.15436 -21.0762 1.78595 0.534501 11.7001 -3.95235 31.4814 32.5893 -21.9379 -36.6585 -73.0105 1414.58 -113.7101 0.828818 7.59069 -56.3686 25.974 -28.7141 0.0 142.117 0.0 93.8752 -43.3037 20.45 0.0 0.0 0.0 0.0 0.0 0.0 109.962204 -6.90313 -0.650346 20.2707 -2.71359 -441.583 0.0 85.1277 0.0 -101.639 51.5892 29.814 0.0 0.0 0.0 0.0 0.0 0.0 6.01002 3.48021 -14.1879 0.0 32.4082 0.0 -5.15278 -11.196699 8.60019 0.0 -22.840641 0.0 17.5455 -15.3194 378.209 0.0 14.8374 0.0 8.29381 6.32691 -21.6167 0.0 -19.80181 0.0 
